<svg width="215" height="43" viewBox="0 0 215 43" fill="none" xmlns="http://www.w3.org/2000/svg">
<g clip-path="url(#clip0_1052_37)">
<path d="M204.652 0.695312H9.52646C4.26514 0.695312 0 4.96045 0 10.2218V33.2163C0 38.4776 4.26514 42.7427 9.52646 42.7427H204.652C209.913 42.7427 214.178 38.4776 214.178 33.2163V10.2218C214.178 4.96045 209.913 0.695312 204.652 0.695312Z" fill="#3BBA00"/>
<path d="M34.1406 30.213V12.9061H38.1459V30.213H34.1406ZM42.2532 30.213V12.9061H45.5663L55.7774 25.3671H54.1703V12.9061H58.1262V30.213H54.8379L44.602 17.752H46.2091V30.213H42.2532ZM67.9075 30.5097C66.5229 30.5097 65.1961 30.3284 63.9269 29.9658C62.6577 29.5867 61.6358 29.1004 60.8611 28.5071L62.2209 25.4907C62.9626 26.0181 63.8362 26.4549 64.8417 26.8011C65.8636 27.1307 66.8938 27.2956 67.9322 27.2956C68.7234 27.2956 69.358 27.2214 69.836 27.073C70.3305 26.9082 70.6931 26.6857 70.9238 26.4055C71.1546 26.1253 71.27 25.8039 71.27 25.4413C71.27 24.9797 71.0887 24.6171 70.726 24.3534C70.3634 24.0732 69.8854 23.8507 69.292 23.6858C68.6987 23.5045 68.0393 23.3397 67.3141 23.1914C66.6053 23.0265 65.8883 22.8287 65.1631 22.598C64.4543 22.3672 63.8033 22.0705 63.2099 21.7079C62.6165 21.3453 62.1303 20.8673 61.7512 20.2739C61.3885 19.6805 61.2072 18.9223 61.2072 17.9993C61.2072 17.0103 61.471 16.112 61.9984 15.3043C62.5423 14.4802 63.35 13.8291 64.4214 13.3511C65.5092 12.8566 66.8691 12.6094 68.5009 12.6094C69.5887 12.6094 70.6601 12.7413 71.715 13.005C72.7699 13.2522 73.7012 13.6313 74.5088 14.1423L73.2726 17.1834C72.465 16.7219 71.6573 16.384 70.8497 16.1697C70.042 15.9389 69.2508 15.8235 68.4761 15.8235C67.7015 15.8235 67.0669 15.9142 66.5724 16.0955C66.0779 16.2768 65.7235 16.5158 65.5092 16.8125C65.295 17.0927 65.1878 17.4224 65.1878 17.8015C65.1878 18.2465 65.3691 18.6091 65.7318 18.8893C66.0944 19.1531 66.5724 19.3673 67.1658 19.5322C67.7591 19.697 68.4102 19.8618 69.119 20.0267C69.8442 20.1915 70.5612 20.381 71.27 20.5953C71.9952 20.8096 72.6545 21.098 73.2479 21.4607C73.8413 21.8233 74.3193 22.3013 74.6819 22.8947C75.061 23.488 75.2506 24.238 75.2506 25.1446C75.2506 26.117 74.9786 27.0071 74.4347 27.8148C73.8907 28.6224 73.0748 29.2735 71.987 29.768C70.9156 30.2625 69.5558 30.5097 67.9075 30.5097ZM86.27 30.5097C84.9349 30.5097 83.6905 30.2954 82.5367 29.8669C81.3994 29.4218 80.4104 28.7955 79.5698 27.9878C78.7291 27.1802 78.0698 26.2324 77.5918 25.1446C77.1303 24.0567 76.8996 22.8617 76.8996 21.5596C76.8996 20.2574 77.1303 19.0624 77.5918 17.9745C78.0698 16.8867 78.7291 15.9389 79.5698 15.1313C80.4269 14.3236 81.4241 13.7055 82.5614 13.277C83.6987 12.8319 84.9432 12.6094 86.2947 12.6094C87.7947 12.6094 89.1463 12.8731 90.3495 13.4006C91.5692 13.9115 92.5912 14.6697 93.4153 15.6752L90.844 18.0487C90.2506 17.3729 89.5913 16.8702 88.8661 16.5405C88.1408 16.1944 87.3496 16.0213 86.4925 16.0213C85.6849 16.0213 84.9432 16.1532 84.2674 16.4169C83.5916 16.6806 83.0064 17.0598 82.5119 17.5542C82.0175 18.0487 81.6301 18.6339 81.3499 19.3097C81.0862 19.9854 80.9543 20.7354 80.9543 21.5596C80.9543 22.3837 81.0862 23.1337 81.3499 23.8095C81.6301 24.4852 82.0175 25.0704 82.5119 25.5649C83.0064 26.0594 83.5916 26.4385 84.2674 26.7022C84.9432 26.9659 85.6849 27.0978 86.4925 27.0978C87.3496 27.0978 88.1408 26.9329 88.8661 26.6033C89.5913 26.2571 90.2506 25.7379 90.844 25.0457L93.4153 27.4192C92.5912 28.4246 91.5692 29.1911 90.3495 29.7185C89.1463 30.246 87.7864 30.5097 86.27 30.5097ZM96.1201 30.213V12.9061H103.611C105.161 12.9061 106.496 13.1616 107.616 13.6725C108.737 14.167 109.603 14.884 110.212 15.8235C110.822 16.7631 111.127 17.8839 111.127 19.186C111.127 20.4717 110.822 21.5843 110.212 22.5238C109.603 23.4468 108.737 24.1556 107.616 24.6501C106.496 25.1446 105.161 25.3918 103.611 25.3918H98.3453L100.125 23.6364V30.213H96.1201ZM107.122 30.213L102.795 23.9331H107.073L111.449 30.213H107.122ZM100.125 24.0814L98.3453 22.2024H103.389C104.625 22.2024 105.548 21.9387 106.158 21.4112C106.768 20.8673 107.073 20.1256 107.073 19.186C107.073 18.23 106.768 17.4883 106.158 16.9609C105.548 16.4334 104.625 16.1697 103.389 16.1697H98.3453L100.125 14.2659V24.0814ZM117.985 19.8783H126.317V22.9936H117.985V19.8783ZM118.281 26.9989H127.701V30.213H114.301V12.9061H127.38V16.1202H118.281V26.9989ZM135.839 30.213L128.372 12.9061H132.699L139.226 28.2351H136.679L143.305 12.9061H147.286L139.795 30.213H135.839ZM152.415 19.8783H160.747V22.9936H152.415V19.8783ZM152.712 26.9989H162.132V30.213H148.731V12.9061H161.81V16.1202H152.712V26.9989ZM165.318 30.213V12.9061H172.81C174.359 12.9061 175.694 13.1616 176.815 13.6725C177.936 14.167 178.801 14.884 179.411 15.8235C180.021 16.7631 180.326 17.8839 180.326 19.186C180.326 20.4717 180.021 21.5843 179.411 22.5238C178.801 23.4468 177.936 24.1556 176.815 24.6501C175.694 25.1446 174.359 25.3918 172.81 25.3918H167.544L169.324 23.6364V30.213H165.318ZM176.321 30.213L171.994 23.9331H176.271L180.647 30.213H176.321ZM169.324 24.0814L167.544 22.2024H172.587C173.824 22.2024 174.747 21.9387 175.356 21.4112C175.966 20.8673 176.271 20.1256 176.271 19.186C176.271 18.23 175.966 17.4883 175.356 16.9609C174.747 16.4334 173.824 16.1697 172.587 16.1697H167.544L169.324 14.2659V24.0814Z" fill="white"/>
</g>
<defs>
<clipPath id="clip0_1052_37">
<rect width="215" height="43" fill="white"/>
</clipPath>
</defs>
</svg>
