<svg width="181" height="43" viewBox="0 0 181 43" fill="none" xmlns="http://www.w3.org/2000/svg">
<rect y="0.692261" width="180.178" height="42.0474" rx="9.52646" fill="#881935"/>
<path d="M37.7262 30.2158V16.1725H32.188V12.9089H47.2698V16.1725H41.7315V30.2158H37.7262ZM53.1087 19.8811H61.4408V22.9964H53.1087V19.8811ZM53.4054 27.0017H62.8253V30.2158H49.4248V12.9089H62.5039V16.123H53.4054V27.0017ZM74.4185 30.5125C73.0504 30.5125 71.7812 30.29 70.6109 29.845C69.4571 29.3999 68.4517 28.7736 67.5946 27.9659C66.754 27.1583 66.0947 26.2105 65.6167 25.1226C65.1551 24.0348 64.9244 22.848 64.9244 21.5624C64.9244 20.2767 65.1551 19.0899 65.6167 18.0021C66.0947 16.9142 66.7622 15.9664 67.6193 15.1588C68.4764 14.3511 69.4819 13.7248 70.6357 13.2798C71.7895 12.8347 73.0422 12.6122 74.3937 12.6122C75.7618 12.6122 77.0145 12.8347 78.1518 13.2798C79.3056 13.7248 80.3028 14.3511 81.1434 15.1588C82.0006 15.9664 82.6681 16.9142 83.1461 18.0021C83.6241 19.0735 83.8631 20.2602 83.8631 21.5624C83.8631 22.848 83.6241 24.043 83.1461 25.1474C82.6681 26.2352 82.0006 27.183 81.1434 27.9906C80.3028 28.7818 79.3056 29.3999 78.1518 29.845C77.0145 30.29 75.7701 30.5125 74.4185 30.5125ZM74.3937 27.1006C75.1684 27.1006 75.8772 26.9687 76.52 26.705C77.1793 26.4413 77.7562 26.0622 78.2507 25.5677C78.7452 25.0732 79.1243 24.488 79.388 23.8123C79.6682 23.1365 79.8083 22.3865 79.8083 21.5624C79.8083 20.7382 79.6682 19.9882 79.388 19.3125C79.1243 18.6367 78.7452 18.0515 78.2507 17.557C77.7727 17.0626 77.2041 16.6834 76.5447 16.4197C75.8854 16.156 75.1684 16.0241 74.3937 16.0241C73.6191 16.0241 72.9021 16.156 72.2427 16.4197C71.5999 16.6834 71.0313 17.0626 70.5368 17.557C70.0423 18.0515 69.6549 18.6367 69.3747 19.3125C69.111 19.9882 68.9791 20.7382 68.9791 21.5624C68.9791 22.37 69.111 23.12 69.3747 23.8123C69.6549 24.488 70.034 25.0732 70.512 25.5677C71.0065 26.0622 71.5834 26.4413 72.2427 26.705C72.9021 26.9687 73.6191 27.1006 74.3937 27.1006ZM72.1438 11.4996L75.4816 7.93933H79.6353L75.1602 11.4996H72.1438ZM86.8733 30.2158V12.9089H94.3647C95.9141 12.9089 97.2492 13.1644 98.37 13.6753C99.4909 14.1698 100.356 14.8868 100.966 15.8263C101.576 16.7659 101.881 17.8867 101.881 19.1888C101.881 20.4745 101.576 21.5871 100.966 22.5266C100.356 23.4496 99.4909 24.1584 98.37 24.6529C97.2492 25.1474 95.9141 25.3946 94.3647 25.3946H89.0985L90.8786 23.6392V30.2158H86.8733ZM97.8755 30.2158L93.5488 23.9359H97.8261L102.202 30.2158H97.8755ZM90.8786 24.0842L89.0985 22.2052H94.1422C95.3784 22.2052 96.3014 21.9415 96.9113 21.414C97.5212 20.8701 97.8261 20.1284 97.8261 19.1888C97.8261 18.2328 97.5212 17.4911 96.9113 16.9637C96.3014 16.4362 95.3784 16.1725 94.1422 16.1725H89.0985L90.8786 14.2687V24.0842ZM105.054 30.2158V12.9089H109.06V30.2158H105.054ZM121.449 30.5125C120.114 30.5125 118.87 30.2982 117.716 29.8697C116.579 29.4246 115.59 28.7983 114.749 27.9906C113.909 27.183 113.249 26.2352 112.771 25.1474C112.31 24.0595 112.079 22.8645 112.079 21.5624C112.079 20.2602 112.31 19.0652 112.771 17.9773C113.249 16.8895 113.909 15.9417 114.749 15.1341C115.606 14.3264 116.604 13.7083 117.741 13.2798C118.878 12.8347 120.123 12.6122 121.474 12.6122C122.974 12.6122 124.326 12.8759 125.529 13.4034C126.749 13.9143 127.771 14.6725 128.595 15.678L126.023 18.0515C125.43 17.3757 124.771 16.873 124.046 16.5433C123.32 16.1972 122.529 16.0241 121.672 16.0241C120.864 16.0241 120.123 16.156 119.447 16.4197C118.771 16.6834 118.186 17.0626 117.691 17.557C117.197 18.0515 116.81 18.6367 116.529 19.3125C116.266 19.9882 116.134 20.7382 116.134 21.5624C116.134 22.3865 116.266 23.1365 116.529 23.8123C116.81 24.488 117.197 25.0732 117.691 25.5677C118.186 26.0622 118.771 26.4413 119.447 26.705C120.123 26.9687 120.864 27.1006 121.672 27.1006C122.529 27.1006 123.32 26.9357 124.046 26.6061C124.771 26.2599 125.43 25.7407 126.023 25.0485L128.595 27.422C127.771 28.4274 126.749 29.1939 125.529 29.7213C124.326 30.2488 122.966 30.5125 121.449 30.5125ZM128.711 30.2158L136.425 12.9089H140.381L148.12 30.2158H143.916L137.587 14.9363H139.169L132.815 30.2158H128.711ZM132.568 26.5072L133.631 23.4661H142.532L143.62 26.5072H132.568Z" fill="#FFEAC1"/>
</svg>
