<svg width="215" height="43" viewBox="0 0 215 43" fill="none" xmlns="http://www.w3.org/2000/svg">
<rect y="0.692261" width="214.178" height="42.0474" rx="9.52646" fill="#881935"/>
<path d="M34.1412 30.2158V12.9089H38.1465V30.2158H34.1412ZM42.2538 30.2158V12.9089H45.5669L55.778 25.3699H54.1709V12.9089H58.1268V30.2158H54.8385L44.6026 17.7548H46.2097V30.2158H42.2538ZM67.9081 30.5125C66.5235 30.5125 65.1967 30.3312 63.9275 29.9686C62.6583 29.5895 61.6364 29.1032 60.8617 28.5099L62.2215 25.4935C62.9632 26.0209 63.8368 26.4577 64.8423 26.8039C65.8642 27.1335 66.8944 27.2984 67.9328 27.2984C68.724 27.2984 69.3586 27.2242 69.8366 27.0758C70.3311 26.911 70.6937 26.6885 70.9244 26.4083C71.1552 26.1281 71.2706 25.8067 71.2706 25.4441C71.2706 24.9825 71.0893 24.6199 70.7266 24.3562C70.364 24.076 69.886 23.8535 69.2926 23.6886C68.6993 23.5073 68.0399 23.3425 67.3147 23.1942C66.6059 23.0293 65.8889 22.8315 65.1637 22.6008C64.4549 22.37 63.8039 22.0733 63.2105 21.7107C62.6171 21.3481 62.1309 20.8701 61.7518 20.2767C61.3891 19.6833 61.2078 18.9251 61.2078 18.0021C61.2078 17.0131 61.4716 16.1148 61.999 15.3071C62.5429 14.483 63.3506 13.8319 64.422 13.3539C65.5098 12.8594 66.8697 12.6122 68.5015 12.6122C69.5893 12.6122 70.6607 12.7441 71.7156 13.0078C72.7705 13.255 73.7018 13.6341 74.5094 14.1451L73.2732 17.1862C72.4656 16.7247 71.6579 16.3868 70.8503 16.1725C70.0426 15.9417 69.2514 15.8263 68.4767 15.8263C67.7021 15.8263 67.0675 15.917 66.573 16.0983C66.0785 16.2796 65.7241 16.5186 65.5098 16.8153C65.2956 17.0955 65.1884 17.4252 65.1884 17.8043C65.1884 18.2493 65.3697 18.6119 65.7324 18.8921C66.095 19.1559 66.573 19.3701 67.1664 19.535C67.7597 19.6998 68.4108 19.8646 69.1196 20.0295C69.8448 20.1943 70.5618 20.3838 71.2706 20.5981C71.9958 20.8124 72.6551 21.1008 73.2485 21.4635C73.8419 21.8261 74.3199 22.3041 74.6825 22.8975C75.0616 23.4908 75.2512 24.2408 75.2512 25.1474C75.2512 26.1198 74.9792 27.0099 74.4353 27.8176C73.8913 28.6252 73.0754 29.2763 71.9876 29.7708C70.9162 30.2653 69.5564 30.5125 67.9081 30.5125ZM86.2706 30.5125C84.9355 30.5125 83.6911 30.2982 82.5373 29.8697C81.4 29.4246 80.411 28.7983 79.5704 27.9906C78.7297 27.183 78.0704 26.2352 77.5924 25.1474C77.1309 24.0595 76.9002 22.8645 76.9002 21.5624C76.9002 20.2602 77.1309 19.0652 77.5924 17.9773C78.0704 16.8895 78.7297 15.9417 79.5704 15.1341C80.4275 14.3264 81.4247 13.7083 82.562 13.2798C83.6993 12.8347 84.9438 12.6122 86.2953 12.6122C87.7953 12.6122 89.1469 12.8759 90.3501 13.4034C91.5698 13.9143 92.5918 14.6725 93.4159 15.678L90.8446 18.0515C90.2512 17.3757 89.5919 16.873 88.8667 16.5433C88.1414 16.1972 87.3502 16.0241 86.4931 16.0241C85.6855 16.0241 84.9438 16.156 84.268 16.4197C83.5922 16.6834 83.007 17.0626 82.5125 17.557C82.0181 18.0515 81.6307 18.6367 81.3505 19.3125C81.0868 19.9882 80.9549 20.7382 80.9549 21.5624C80.9549 22.3865 81.0868 23.1365 81.3505 23.8123C81.6307 24.488 82.0181 25.0732 82.5125 25.5677C83.007 26.0622 83.5922 26.4413 84.268 26.705C84.9438 26.9687 85.6855 27.1006 86.4931 27.1006C87.3502 27.1006 88.1414 26.9357 88.8667 26.6061C89.5919 26.2599 90.2512 25.7407 90.8446 25.0485L93.4159 27.422C92.5918 28.4274 91.5698 29.1939 90.3501 29.7213C89.1469 30.2488 87.787 30.5125 86.2706 30.5125ZM96.1207 30.2158V12.9089H103.612C105.162 12.9089 106.497 13.1644 107.617 13.6753C108.738 14.1698 109.604 14.8868 110.213 15.8263C110.823 16.7659 111.128 17.8867 111.128 19.1888C111.128 20.4745 110.823 21.5871 110.213 22.5266C109.604 23.4496 108.738 24.1584 107.617 24.6529C106.497 25.1474 105.162 25.3946 103.612 25.3946H98.3459L100.126 23.6392V30.2158H96.1207ZM107.123 30.2158L102.796 23.9359H107.074L111.45 30.2158H107.123ZM100.126 24.0842L98.3459 22.2052H103.39C104.626 22.2052 105.549 21.9415 106.159 21.414C106.769 20.8701 107.074 20.1284 107.074 19.1888C107.074 18.2328 106.769 17.4911 106.159 16.9637C105.549 16.4362 104.626 16.1725 103.39 16.1725H98.3459L100.126 14.2687V24.0842ZM117.986 19.8811H126.318V22.9964H117.986V19.8811ZM118.282 27.0017H127.702V30.2158H114.302V12.9089H127.381V16.123H118.282V27.0017ZM135.84 30.2158L128.373 12.9089H132.7L139.227 28.2379H136.68L143.306 12.9089H147.287L139.796 30.2158H135.84ZM152.416 19.8811H160.748V22.9964H152.416V19.8811ZM152.713 27.0017H162.133V30.2158H148.732V12.9089H161.811V16.123H152.713V27.0017ZM165.319 30.2158V12.9089H172.811C174.36 12.9089 175.695 13.1644 176.816 13.6753C177.937 14.1698 178.802 14.8868 179.412 15.8263C180.022 16.7659 180.327 17.8867 180.327 19.1888C180.327 20.4745 180.022 21.5871 179.412 22.5266C178.802 23.4496 177.937 24.1584 176.816 24.6529C175.695 25.1474 174.36 25.3946 172.811 25.3946H167.545L169.325 23.6392V30.2158H165.319ZM176.322 30.2158L171.995 23.9359H176.272L180.648 30.2158H176.322ZM169.325 24.0842L167.545 22.2052H172.588C173.825 22.2052 174.748 21.9415 175.357 21.414C175.967 20.8701 176.272 20.1284 176.272 19.1888C176.272 18.2328 175.967 17.4911 175.357 16.9637C174.748 16.4362 173.825 16.1725 172.588 16.1725H167.545L169.325 14.2687V24.0842Z" fill="#FFEAC1"/>
</svg>
