<svg width="178" height="42" viewBox="0 0 178 42" fill="none" xmlns="http://www.w3.org/2000/svg">
<rect width="178" height="42" rx="9.5" fill="#FFEAC1"/>
<path d="M34.0464 29.5V12.2411H41.517C43.0621 12.2411 44.3935 12.4959 45.5112 13.0055C46.6289 13.4986 47.4919 14.2136 48.1001 15.1505C48.7082 16.0874 49.0123 17.2051 49.0123 18.5036C49.0123 19.7857 48.7082 20.8952 48.1001 21.8321C47.4919 22.769 46.6289 23.4923 45.5112 24.0018C44.3935 24.4949 43.0621 24.7415 41.517 24.7415H36.2654L38.0406 22.9416V29.5H34.0464ZM38.0406 23.3854L36.2654 21.487H41.2951C42.5279 21.487 43.4484 21.224 44.0565 20.698C44.6647 20.172 44.9688 19.4406 44.9688 18.5036C44.9688 17.5503 44.6647 16.8106 44.0565 16.2846C43.4484 15.7587 42.5279 15.4957 41.2951 15.4957H36.2654L38.0406 13.5972V23.3854ZM51.8639 29.5V12.2411H59.3345C60.8796 12.2411 62.211 12.4959 63.3287 13.0055C64.4464 13.4986 65.3093 14.2136 65.9175 15.1505C66.5257 16.0874 66.8298 17.2051 66.8298 18.5036C66.8298 19.7857 66.5257 20.8952 65.9175 21.8321C65.3093 22.7526 64.4464 23.4594 63.3287 23.9525C62.211 24.4456 60.8796 24.6922 59.3345 24.6922H54.0829L55.8581 22.9416V29.5H51.8639ZM62.8356 29.5L58.5209 23.2375H62.7863L67.1503 29.5H62.8356ZM55.8581 23.3854L54.0829 21.5116H59.1126C60.3454 21.5116 61.2658 21.2486 61.874 20.7226C62.4822 20.1802 62.7863 19.4406 62.7863 18.5036C62.7863 17.5503 62.4822 16.8106 61.874 16.2846C61.2658 15.7587 60.3454 15.4957 59.1126 15.4957H54.0829L55.8581 13.5972V23.3854ZM67.726 29.5L75.4185 12.2411H79.3634L87.0806 29.5H82.8892L76.5774 14.2629H78.1553L71.8188 29.5H67.726ZM71.5723 25.8017L72.6325 22.769H81.5085L82.5933 25.8017H71.5723ZM75.1473 10.8358L78.4758 7.28538H82.618L78.1553 10.8358H75.1473ZM91.5795 29.5V15.4957H86.0566V12.2411H101.096V15.4957H95.5737V29.5H91.5795ZM103.246 29.5V12.2411H107.24V29.5H103.246ZM119.595 29.7959C118.264 29.7959 117.023 29.5822 115.872 29.1548C114.738 28.711 113.752 28.0864 112.914 27.281C112.075 26.4756 111.418 25.5305 110.941 24.4456C110.481 23.3608 110.251 22.1691 110.251 20.8706C110.251 19.572 110.481 18.3804 110.941 17.2955C111.418 16.2107 112.075 15.2656 112.914 14.4601C113.768 13.6547 114.763 13.0383 115.897 12.611C117.031 12.1672 118.272 11.9453 119.62 11.9453C121.116 11.9453 122.464 12.2083 123.663 12.7343C124.88 13.2438 125.899 13.9999 126.721 15.0026L124.157 17.3695C123.565 16.6956 122.907 16.1942 122.184 15.8655C121.461 15.5203 120.672 15.3477 119.817 15.3477C119.012 15.3477 118.272 15.4792 117.598 15.7422C116.924 16.0052 116.341 16.3833 115.848 16.8764C115.355 17.3695 114.968 17.953 114.689 18.6269C114.426 19.3008 114.294 20.0487 114.294 20.8706C114.294 21.6924 114.426 22.4403 114.689 23.1142C114.968 23.7881 115.355 24.3717 115.848 24.8648C116.341 25.3579 116.924 25.7359 117.598 25.9989C118.272 26.2619 119.012 26.3934 119.817 26.3934C120.672 26.3934 121.461 26.229 122.184 25.9003C122.907 25.5551 123.565 25.0374 124.157 24.347L126.721 26.7139C125.899 27.7166 124.88 28.4809 123.663 29.0069C122.464 29.5329 121.107 29.7959 119.595 29.7959ZM126.837 29.5L134.529 12.2411H138.474L146.191 29.5H142L135.688 14.2629H137.266L130.929 29.5H126.837ZM130.683 25.8017L131.743 22.769H140.619L141.704 25.8017H130.683Z" fill="#881935"/>
</svg>
