<svg width="180" height="54" viewBox="0 0 180 54" fill="none" xmlns="http://www.w3.org/2000/svg">
<g clip-path="url(#clip0)">
<path d="M176.143 54H3.85714C1.8 54 0 52.3286 0 50.1429V3.85714C0 1.8 1.8 0 3.85714 0H176.143C178.2 0 180 1.8 180 3.85714V50.1429C180 52.3286 178.2 54 176.143 54Z" fill="#420808"/>
<path d="M26.9821 34.4551V19.7698H30.096V34.4551H26.9821ZM43.9174 34.4551H40.8538V27.8959C40.8538 27.0857 40.7098 26.4796 40.4219 26.0778C40.1339 25.6694 39.6752 25.4651 39.0458 25.4651C38.1886 25.4651 37.5692 25.7531 37.1875 26.329C36.8058 26.8982 36.615 27.8457 36.615 29.1716V34.4551H33.5513V23.2252H35.8917L36.3036 24.6616H36.4743C36.8158 24.1191 37.2846 23.7107 37.8806 23.4361C38.4833 23.1549 39.1663 23.0142 39.9297 23.0142C41.2355 23.0142 42.2266 23.3691 42.9029 24.079C43.5792 24.7821 43.9174 25.7999 43.9174 27.1325V34.4551ZM53.279 25.5254H50.6272V34.4551H47.5636V25.5254H45.8761V24.0488L47.5636 23.2252V22.4015C47.5636 21.1225 47.8783 20.1883 48.5078 19.5991C49.1373 19.0098 50.1451 18.7151 51.5312 18.7151C52.5893 18.7151 53.5301 18.8725 54.3538 19.1872L53.5703 21.4372C52.9542 21.243 52.385 21.1459 51.8627 21.1459C51.4275 21.1459 51.1127 21.2765 50.9185 21.5377C50.7243 21.7921 50.6272 22.1203 50.6272 22.522V23.2252H53.279V25.5254ZM57.4877 28.82C57.4877 29.9316 57.6685 30.772 58.0301 31.3412C58.3984 31.9104 58.9944 32.195 59.8181 32.195C60.635 32.195 61.221 31.9138 61.5759 31.3513C61.9375 30.7821 62.1183 29.9383 62.1183 28.82C62.1183 27.7084 61.9375 26.8747 61.5759 26.3189C61.2143 25.7631 60.6216 25.4852 59.798 25.4852C58.981 25.4852 58.3917 25.7631 58.0301 26.3189C57.6685 26.868 57.4877 27.7017 57.4877 28.82ZM65.2522 28.82C65.2522 30.6482 64.7701 32.0778 63.8058 33.1091C62.8415 34.1403 61.4989 34.656 59.7779 34.656C58.6998 34.656 57.7489 34.4216 56.9252 33.9528C56.1016 33.4774 55.4687 32.7977 55.0268 31.9138C54.5848 31.0299 54.3638 29.9986 54.3638 28.82C54.3638 26.9852 54.8426 25.5589 55.8002 24.541C56.7578 23.5232 58.1038 23.0142 59.8382 23.0142C60.9163 23.0142 61.8672 23.2486 62.6908 23.7174C63.5145 24.1861 64.1473 24.8591 64.5893 25.7363C65.0312 26.6136 65.2522 27.6415 65.2522 28.82ZM74.0513 23.0142C74.4665 23.0142 74.8114 23.0444 75.0859 23.1046L74.8549 25.9774C74.6071 25.9104 74.3058 25.877 73.9509 25.877C72.9732 25.877 72.2098 26.1281 71.6607 26.6303C71.1183 27.1325 70.8471 27.8357 70.8471 28.7397V34.4551H67.7835V23.2252H70.1038L70.5558 25.1136H70.7065C71.0547 24.4841 71.5234 23.9785 72.1127 23.5968C72.7087 23.2084 73.3549 23.0142 74.0513 23.0142ZM87.1797 34.4551H84.1161V27.8959C84.1161 27.0857 83.9788 26.4796 83.7042 26.0778C83.4364 25.6694 83.0112 25.4651 82.4286 25.4651C81.6451 25.4651 81.0759 25.7531 80.721 26.329C80.3661 26.9049 80.1886 27.8524 80.1886 29.1716V34.4551H77.125V23.2252H79.4654L79.8772 24.6616H80.048C80.3493 24.1459 80.7846 23.7441 81.3538 23.4562C81.923 23.1616 82.5759 23.0142 83.3125 23.0142C84.9933 23.0142 86.1317 23.5633 86.7277 24.6616H86.9989C87.3002 24.1392 87.7422 23.7341 88.3248 23.4461C88.9141 23.1582 89.577 23.0142 90.3136 23.0142C91.5859 23.0142 92.5469 23.3424 93.1964 23.9986C93.8527 24.6482 94.1808 25.6928 94.1808 27.1325V34.4551H91.1071V27.8959C91.1071 27.0857 90.9699 26.4796 90.6953 26.0778C90.4275 25.6694 90.0022 25.4651 89.4196 25.4651C88.6696 25.4651 88.1071 25.733 87.7321 26.2687C87.3638 26.8044 87.1797 27.6549 87.1797 28.82V34.4551ZM104.467 34.4551L103.874 32.9283H103.794C103.278 33.5778 102.746 34.0299 102.196 34.2843C101.654 34.5321 100.944 34.656 100.067 34.656C98.9888 34.656 98.1384 34.3479 97.5156 33.7319C96.8996 33.1158 96.5915 32.2386 96.5915 31.1002C96.5915 29.9082 97.0067 29.031 97.8371 28.4685C98.6741 27.8993 99.933 27.5845 101.614 27.5243L103.562 27.464V26.9718C103.562 25.8334 102.98 25.2642 101.815 25.2642C100.917 25.2642 99.8627 25.5354 98.6507 26.0778L97.6362 24.0086C98.9286 23.3323 100.362 22.9941 101.935 22.9941C103.442 22.9941 104.597 23.3223 105.401 23.9785C106.204 24.6348 106.606 25.6325 106.606 26.9718V34.4551H104.467ZM103.562 29.252L102.377 29.2921C101.487 29.3189 100.824 29.4796 100.388 29.7743C99.9531 30.0689 99.7355 30.5176 99.7355 31.1203C99.7355 31.9841 100.231 32.416 101.222 32.416C101.932 32.416 102.498 32.2118 102.92 31.8033C103.348 31.3948 103.562 30.8524 103.562 30.1761V29.252ZM114.33 34.656C110.835 34.656 109.087 32.7374 109.087 28.9004C109.087 26.9919 109.562 25.5354 110.513 24.531C111.464 23.5198 112.827 23.0142 114.602 23.0142C115.901 23.0142 117.066 23.2687 118.097 23.7776L117.193 26.1482C116.711 25.954 116.262 25.7966 115.847 25.6761C115.432 25.5488 115.017 25.4852 114.602 25.4852C113.008 25.4852 112.211 26.6169 112.211 28.8803C112.211 31.0767 113.008 32.1749 114.602 32.1749C115.191 32.1749 115.737 32.0979 116.239 31.9439C116.741 31.7832 117.243 31.5354 117.746 31.2006V33.8223C117.25 34.137 116.748 34.3546 116.239 34.4752C115.737 34.5957 115.1 34.656 114.33 34.656ZM116.249 36.9662C116.249 37.8234 115.994 38.4428 115.485 38.8245C114.983 39.2062 114.203 39.397 113.145 39.397C112.623 39.397 112.134 39.3267 111.679 39.1861V37.4986C111.859 37.5455 112.1 37.5924 112.402 37.6392C112.71 37.6861 112.948 37.7095 113.115 37.7095C113.597 37.7095 113.838 37.502 113.838 37.0868C113.838 36.531 113.282 36.1694 112.171 36.002L112.954 34.4551H114.893L114.622 35.0678C115.117 35.2285 115.512 35.4763 115.807 35.8111C116.102 36.1526 116.249 36.5377 116.249 36.9662ZM122.798 28.82C122.798 29.9316 122.979 30.772 123.34 31.3412C123.709 31.9104 124.305 32.195 125.128 32.195C125.945 32.195 126.531 31.9138 126.886 31.3513C127.248 30.7821 127.429 29.9383 127.429 28.82C127.429 27.7084 127.248 26.8747 126.886 26.3189C126.525 25.7631 125.932 25.4852 125.108 25.4852C124.291 25.4852 123.702 25.7631 123.34 26.3189C122.979 26.868 122.798 27.7017 122.798 28.82ZM130.562 28.82C130.562 30.6482 130.08 32.0778 129.116 33.1091C128.152 34.1403 126.809 34.656 125.088 34.656C124.01 34.656 123.059 34.4216 122.235 33.9528C121.412 33.4774 120.779 32.7977 120.337 31.9138C119.895 31.0299 119.674 29.9986 119.674 28.82C119.674 26.9852 120.153 25.5589 121.11 24.541C122.068 23.5232 123.414 23.0142 125.148 23.0142C126.227 23.0142 127.177 23.2486 128.001 23.7174C128.825 24.1861 129.458 24.8591 129.9 25.7363C130.342 26.6136 130.562 27.6415 130.562 28.82ZM123.461 20.935C123.253 20.935 123.052 21.0254 122.858 21.2062C122.671 21.3803 122.533 21.6482 122.446 22.0098H120.95C121.023 21.0388 121.298 20.2787 121.773 19.7296C122.256 19.1805 122.892 18.906 123.682 18.906C123.956 18.906 124.224 18.9629 124.485 19.0767C124.753 19.1839 125.015 19.3044 125.269 19.4383C125.53 19.5656 125.785 19.6828 126.032 19.7899C126.28 19.897 126.525 19.9506 126.766 19.9506C126.973 19.9506 127.171 19.8636 127.358 19.6895C127.552 19.5153 127.693 19.2475 127.78 18.8859H129.277C129.203 19.8569 128.922 20.6169 128.433 21.166C127.951 21.7151 127.321 21.9897 126.545 21.9897C126.27 21.9897 125.999 21.9361 125.731 21.829C125.47 21.7151 125.209 21.5946 124.948 21.4674C124.693 21.3334 124.442 21.2129 124.194 21.1057C123.946 20.9919 123.702 20.935 123.461 20.935ZM137.744 25.1939C137.095 25.1939 136.586 25.4015 136.218 25.8167C135.849 26.2252 135.638 26.8078 135.585 27.5645H139.884C139.871 26.8078 139.673 26.2252 139.291 25.8167C138.91 25.4015 138.394 25.1939 137.744 25.1939ZM138.176 34.656C136.368 34.656 134.955 34.1571 133.937 33.1593C132.92 32.1616 132.411 30.7486 132.411 28.9205C132.411 27.0388 132.879 25.5857 133.817 24.5611C134.761 23.5299 136.064 23.0142 137.724 23.0142C139.311 23.0142 140.547 23.4662 141.431 24.3703C142.315 25.2743 142.757 26.5232 142.757 28.1169V29.6035H135.515C135.548 30.4741 135.806 31.1537 136.288 31.6426C136.77 32.1314 137.446 32.3758 138.317 32.3758C138.993 32.3758 139.633 32.3055 140.235 32.1649C140.838 32.0243 141.468 31.7999 142.124 31.4919V33.8624C141.588 34.1303 141.016 34.3278 140.406 34.4551C139.797 34.589 139.054 34.656 138.176 34.656ZM153.083 31.1203C153.083 32.272 152.681 33.1493 151.877 33.752C151.08 34.3546 149.885 34.656 148.291 34.656C147.474 34.656 146.778 34.5991 146.202 34.4852C145.626 34.3781 145.087 34.2174 144.585 34.0031V31.4718C145.154 31.7397 145.794 31.964 146.503 32.1448C147.22 32.3256 147.849 32.416 148.392 32.416C149.503 32.416 150.059 32.0946 150.059 31.4517C150.059 31.2107 149.985 31.0165 149.838 30.8691C149.691 30.7151 149.436 30.5444 149.075 30.3569C148.713 30.1627 148.231 29.9383 147.628 29.6839C146.765 29.3223 146.128 28.9874 145.72 28.6794C145.318 28.3714 145.023 28.0198 144.836 27.6247C144.655 27.2229 144.565 26.7307 144.565 26.1482C144.565 25.1504 144.95 24.3803 145.72 23.8379C146.497 23.2888 147.595 23.0142 149.015 23.0142C150.367 23.0142 151.683 23.3089 152.962 23.8982L152.038 26.108C151.475 25.8669 150.95 25.6694 150.461 25.5153C149.972 25.3613 149.473 25.2843 148.964 25.2843C148.06 25.2843 147.608 25.5287 147.608 26.0176C147.608 26.2921 147.752 26.5299 148.04 26.7307C148.335 26.9316 148.974 27.2296 149.959 27.6247C150.836 27.9796 151.479 28.3111 151.887 28.6191C152.296 28.9272 152.597 29.2821 152.791 29.6839C152.985 30.0857 153.083 30.5645 153.083 31.1203Z" fill="white"/>
</g>
<defs>
<clipPath id="clip0">
<rect width="180" height="54" fill="white"/>
</clipPath>
</defs>
</svg>
