<svg width="576" height="512" viewBox="0 0 576 512" fill="none" xmlns="http://www.w3.org/2000/svg">
<path d="M565.6 36.2413C572.1 40.7213 576 48.1113 576 56.0013V392.001C576 401.101 569.8 410.901 560.5 414.401L392.5 478.401C387.4 480.401 381.7 480.501 376.4 478.801L192.5 417.501L32.54 478.401C25.17 481.201 16.88 480.201 10.38 475.801C3.882 471.301 0 463.901 0 456.001V120.001C0 110.001 6.15 101.101 15.46 97.5713L183.5 33.5713C188.6 31.6013 194.3 31.4813 199.6 33.2313L383.5 94.5213L543.5 33.5713C550.8 30.7613 559.1 31.7613 565.6 36.2413ZM48 421.201L168 375.501V90.8313L48 136.501V421.201ZM360 137.301L216 89.3013V374.701L360 422.701V137.301ZM408 421.201L528 375.501V90.8313L408 136.501V421.201Z" fill="white"/>
</svg>
